<svg width="23" height="23" viewBox="0 0 23 23" fill="none" xmlns="http://www.w3.org/2000/svg">
<path d="M18.2706 8.46971C17.4633 5.48385 14.9439 3.39062 12.0298 3.39062C9.99777 3.39062 8.10487 4.41505 6.8746 6.15476C6.53506 6.07661 6.18779 6.03695 5.83937 6.03655C3.10513 6.03631 0.879883 8.46028 0.879883 11.4409C0.879883 12.5097 1.16761 13.5449 1.71064 14.435C1.83829 14.6434 2.05334 14.7683 2.28334 14.7683H6.86563C6.89852 12.6373 8.63387 10.9194 10.7726 10.9194C12.9114 10.9194 14.6465 12.6373 14.6797 14.7683H20.877C21.0948 14.7683 21.2993 14.6567 21.4297 14.4658C21.8816 13.8039 22.1225 13.0207 22.1206 12.2192C22.1204 9.99829 20.3229 8.20084 18.2706 8.46971Z" fill="#E8E8E8"/>
<path d="M13.189 16.1746L10.9079 12.9865C10.8874 12.9581 10.8605 12.935 10.8294 12.919C10.7982 12.903 10.7637 12.8946 10.7287 12.8945H10.7282C10.6569 12.8945 10.5907 12.929 10.5491 12.9875L8.28266 16.1746C8.25933 16.2076 8.24552 16.2465 8.24272 16.2869C8.23992 16.3273 8.24824 16.3677 8.26679 16.4036C8.30451 16.4772 8.38041 16.5228 8.46298 16.5228H9.5288V19.386C9.5288 19.5084 9.6277 19.6068 9.74914 19.6068H11.7225C11.8444 19.6068 11.9429 19.5084 11.9429 19.386V16.5228H13.0096C13.05 16.5227 13.0897 16.5115 13.1242 16.4904C13.1587 16.4693 13.1867 16.4392 13.2052 16.4032C13.2237 16.3673 13.232 16.327 13.2292 16.2866C13.2263 16.2463 13.2124 16.2075 13.189 16.1746Z" fill="#E8E8E8"/>
</svg>
